<svg width="30" height="29" viewBox="0 0 30 29" fill="none" xmlns="http://www.w3.org/2000/svg">
<path d="M13.75 19.3333V12.6875C13.75 11.5658 13.2891 10.4901 12.4686 9.69702C11.6481 8.9039 10.5353 8.45833 9.375 8.45833M13.75 19.3333H5V12.6875C5 11.5658 5.46094 10.4901 6.28141 9.69702C7.10188 8.9039 8.21468 8.45833 9.375 8.45833M13.75 19.3333V24.1667M9.375 8.45833H17.5M17.5 8.45833V4.83333H20.625M17.5 8.45833V12.0833M13.125 19.3333H25V12.0833C25 11.1219 24.6049 10.1999 23.9017 9.52007C23.1984 8.84025 22.2446 8.45833 21.25 8.45833M18.75 19.3333V24.1667M8.75 16.3125H10" stroke="#5E5E5E" stroke-width="2" stroke-linecap="round" stroke-linejoin="round"/>
</svg>
