<svg width="30" height="29" viewBox="0 0 30 29" fill="none" xmlns="http://www.w3.org/2000/svg">
<path fill-rule="evenodd" clip-rule="evenodd" d="M10.7325 3.12475C11.2012 2.6715 11.837 2.4168 12.5 2.41666H17.5C18.163 2.41666 18.7989 2.67128 19.2678 3.12449C19.7366 3.5777 20 4.19239 20 4.83333V7.25H23.75C24.0815 7.25 24.3995 7.3773 24.6339 7.60391C24.8683 7.83052 25 8.13786 25 8.45833C25 8.7788 24.8683 9.08614 24.6339 9.31275C24.3995 9.53936 24.0815 9.66666 23.75 9.66666V24.1667C23.75 24.8076 23.4866 25.4223 23.0178 25.8755C22.5489 26.3287 21.913 26.5833 21.25 26.5833H8.75C8.08696 26.5833 7.45107 26.3287 6.98223 25.8755C6.51339 25.4223 6.25 24.8076 6.25 24.1667V9.66666C5.91848 9.66666 5.60054 9.53936 5.36612 9.31275C5.1317 9.08614 5 8.7788 5 8.45833C5 8.13786 5.1317 7.83052 5.36612 7.60391C5.60054 7.3773 5.91848 7.25 6.25 7.25H10V4.83333C10.0001 4.19244 10.2636 3.57785 10.7325 3.12475ZM12.5 7.25H17.5V4.83333H12.5V7.25ZM13.75 12.0833C13.75 11.7629 13.6183 11.4555 13.3839 11.2289C13.1495 11.0023 12.8315 10.875 12.5 10.875C12.1685 10.875 11.8505 11.0023 11.6161 11.2289C11.3817 11.4555 11.25 11.7629 11.25 12.0833V21.75C11.25 22.0705 11.3817 22.3778 11.6161 22.6044C11.8505 22.831 12.1685 22.9583 12.5 22.9583C12.8315 22.9583 13.1495 22.831 13.3839 22.6044C13.6183 22.3778 13.75 22.0705 13.75 21.75V12.0833ZM18.75 12.0833C18.75 11.7629 18.6183 11.4555 18.3839 11.2289C18.1495 11.0023 17.8315 10.875 17.5 10.875C17.1685 10.875 16.8505 11.0023 16.6161 11.2289C16.3817 11.4555 16.25 11.7629 16.25 12.0833V21.75C16.25 22.0705 16.3817 22.3778 16.6161 22.6044C16.8505 22.831 17.1685 22.9583 17.5 22.9583C17.8315 22.9583 18.1495 22.831 18.3839 22.6044C18.6183 22.3778 18.75 22.0705 18.75 21.75V12.0833Z" fill="#5E5E5E"/>
</svg>
