<svg width="30" height="29" viewBox="0 0 30 29" fill="none" xmlns="http://www.w3.org/2000/svg">
<path d="M13.7501 21.75L12.6831 20.7186C12.566 20.6053 12.5001 20.4516 12.5001 20.2914V14.954C12.5001 14.6613 12.3902 14.3786 12.1908 14.1583L5.56409 6.83735C4.85689 6.05607 5.43087 4.83333 6.50482 4.83333H23.4434C24.5256 4.83333 25.0965 6.0724 24.3725 6.84999L20.6251 10.875M17.5001 22.2036C17.9185 22.6404 18.4781 22.9448 19.0986 23.073C19.695 23.2644 20.3489 23.2428 20.9286 23.0126C21.5084 22.7823 21.9709 22.3606 22.2231 21.832C22.5309 20.8308 21.4278 19.7372 20.0063 19.4217C18.5848 19.1062 17.4863 18.0195 17.7894 17.0113C18.0414 16.4826 18.5039 16.0606 19.0836 15.8302C19.6635 15.6001 20.3175 15.5787 20.914 15.7703C21.5278 15.8966 22.0825 16.1953 22.5001 16.6242M20.0755 23.1613V24.1667M20.0755 14.5V15.6807" stroke="#5E5E5E" stroke-width="2.6" stroke-linecap="round" stroke-linejoin="round"/>
</svg>
