<svg width="30" height="29" viewBox="0 0 30 29" fill="none" xmlns="http://www.w3.org/2000/svg">
<path d="M26.25 25.375L21.875 21.1458M21.25 12.0833C21.25 13.1941 21.0237 14.294 20.5839 15.3202C20.1442 16.3464 19.4997 17.2788 18.6872 18.0643C17.8747 18.8497 16.9101 19.4727 15.8485 19.8978C14.7869 20.3229 13.6491 20.5417 12.5 20.5417C11.3509 20.5417 10.2131 20.3229 9.15152 19.8978C8.08992 19.4727 7.12533 18.8497 6.31282 18.0643C5.5003 17.2788 4.85578 16.3464 4.41605 15.3202C3.97633 14.294 3.75 13.1941 3.75 12.0833C3.75 9.84004 4.67187 7.68863 6.31282 6.10239C7.95376 4.51614 10.1794 3.625 12.5 3.625C14.8206 3.625 17.0462 4.51614 18.6872 6.10239C20.3281 7.68863 21.25 9.84004 21.25 12.0833Z" stroke="#5E5E5E" stroke-width="2.6" stroke-linecap="round"/>
</svg>
