<svg width="30" height="29" viewBox="0 0 30 29" fill="none" xmlns="http://www.w3.org/2000/svg">
<path d="M5 15.7083H9.29875C9.54048 15.7089 9.77674 15.7779 9.97842 15.9067C10.1801 16.0356 10.3384 16.2186 10.4338 16.4333C10.8183 17.2956 11.4556 18.0301 12.2671 18.5461C13.0786 19.0622 14.0287 19.3372 15 19.3372C15.9713 19.3372 16.9214 19.0622 17.7329 18.5461C18.5444 18.0301 19.1817 17.2956 19.5662 16.4333C19.6615 16.2185 19.8197 16.0354 20.0214 15.9065C20.2232 15.7777 20.4595 15.7088 20.7013 15.7083H25M5 15.7083V22.9583C5 23.2788 5.1317 23.5861 5.36612 23.8128C5.60054 24.0394 5.91848 24.1667 6.25 24.1667H23.75C24.0815 24.1667 24.3995 24.0394 24.6339 23.8128C24.8683 23.5861 25 23.2788 25 22.9583V15.7083M5 15.7083L7.5 4.83333H22.5L25 15.7083" stroke="#5E5E5E" stroke-width="2.5" stroke-linecap="round" stroke-linejoin="round"/>
</svg>
