<svg width="30" height="29" viewBox="0 0 30 29" fill="none" xmlns="http://www.w3.org/2000/svg">
<path d="M16.25 8.45833H23.75L26.25 13.2917M16.25 8.45833V18.125M16.25 8.45833V7.25C16.25 6.92953 16.1183 6.62219 15.8839 6.39558C15.6495 6.16897 15.3315 6.04167 15 6.04167H5C4.66848 6.04167 4.35054 6.16897 4.11612 6.39558C3.8817 6.62219 3.75 6.92953 3.75 7.25V18.125H6.25M26.25 13.2917V18.125H23.75M26.25 13.2917H20M16.25 18.125H11.25M16.25 18.125H18.75M24.375 19.9375C24.375 20.7387 24.0458 21.507 23.4597 22.0736C22.8737 22.6401 22.0788 22.9583 21.25 22.9583C20.4212 22.9583 19.6263 22.6401 19.0403 22.0736C18.4542 21.507 18.125 20.7387 18.125 19.9375C18.125 19.1363 18.4542 18.368 19.0403 17.8014C19.6263 17.2349 20.4212 16.9167 21.25 16.9167C22.0788 16.9167 22.8737 17.2349 23.4597 17.8014C24.0458 18.368 24.375 19.1363 24.375 19.9375ZM11.875 19.9375C11.875 20.7387 11.5458 21.507 10.9597 22.0736C10.3737 22.6401 9.5788 22.9583 8.75 22.9583C7.9212 22.9583 7.12634 22.6401 6.54029 22.0736C5.95424 21.507 5.625 20.7387 5.625 19.9375C5.625 19.1363 5.95424 18.368 6.54029 17.8014C7.12634 17.2349 7.9212 16.9167 8.75 16.9167C9.5788 16.9167 10.3737 17.2349 10.9597 17.8014C11.5458 18.368 11.875 19.1363 11.875 19.9375Z" stroke="#5E5E5E" stroke-width="2.6" stroke-linecap="round" stroke-linejoin="round"/>
</svg>
